<svg width="170" height="117" viewBox="0 0 170 117" fill="none" xmlns="http://www.w3.org/2000/svg">
<path fill-rule="evenodd" clip-rule="evenodd" d="M62.939 0.406926C41.1693 3.82895 23.6353 19.8062 17.8393 41.5027C15.8395 48.9887 15.8328 61.3888 17.8246 68.9217C20.767 80.0478 27.9411 91.4126 36.0724 97.8287C42.0971 102.583 42.6701 102.75 39.0534 98.6987C30.6893 89.3308 25.3142 75.0849 25.2642 62.1545C25.2435 56.8092 27.0792 47.5937 29.3299 41.7421C34.9064 27.2448 47.8671 14.8246 62.7863 9.68191C75.5048 5.29754 88.2801 5.73089 101.961 11.0094L105.63 12.4251L103.629 10.7105C100.711 8.21064 88.9785 2.67 83.951 1.41742C78.5479 0.071211 68.2294 -0.425007 62.939 0.406926ZM28.3186 13.4035C12.8538 22.7394 3.79398 35.6671 0.84363 52.6067C-1.1902 64.2825 0.4394 75.1812 5.88383 86.3093C11.6845 98.1671 19.1514 105.644 30.9208 111.382C38.9227 115.284 45.986 116.959 54.6009 116.999C62.2159 117.035 68.2614 115.828 70.8428 113.759L72.7426 112.236L63.8389 111.889C57.2431 111.632 53.7238 111.158 50.2651 110.06C26.4122 102.487 10.5758 81.1358 10.5758 56.5497C10.5758 40.8914 16.8021 26.6061 28.3313 15.8111C31.1142 13.2056 33.1174 11.0743 32.7832 11.0743C32.4496 11.0743 30.4405 12.1222 28.3186 13.4035ZM129.819 35.8403C117.574 37.9074 110.62 44.5549 110.642 54.1729C110.647 56.3999 110.832 58.8984 111.053 59.7263L111.455 61.231L127.22 61.1688L142.985 61.1066L136.7 59.4989C127.955 57.2619 126.02 55.7157 127.374 52.0456C128.837 48.0806 138.255 47.1757 146.757 50.1831C149.452 51.1368 152.138 52.0797 152.728 52.2797C153.555 52.5599 154.314 51.3829 156.063 47.1068C157.308 44.062 158.428 41.3254 158.552 41.0252C158.982 39.9879 151.634 37.2126 145.732 36.1827C139.405 35.0793 134.901 34.9823 129.819 35.8403ZM47.9978 37.3229C48.4281 38.1502 51.7807 43.8681 55.4487 50.0293L62.1185 61.231H78.6286H95.1387L101.137 51.0324C104.437 45.4229 107.803 39.7057 108.617 38.3261L110.098 35.8182L101.861 35.8396L93.6232 35.861L86.6872 47.8772C82.8724 54.4859 79.5358 59.8935 79.2716 59.8935C79.0075 59.8935 75.6749 54.4819 71.8661 47.8672L64.9401 35.841L56.0784 35.8296L47.2167 35.8182L47.9978 37.3229ZM49.2645 69.9248V74.6061H51.9628C55.0198 74.6061 57.9362 72.3203 57.9362 69.9248C57.9362 67.5293 55.0198 65.2435 51.9628 65.2435H49.2645V69.9248ZM64.6066 69.9248V74.6061H67.9419C69.7762 74.6061 71.2771 74.3052 71.2771 73.9373C71.2771 73.5695 70.2265 73.2686 68.9424 73.2686C67.0527 73.2686 66.6078 73.0138 66.6078 71.9311C66.6078 70.8905 67.0527 70.5936 68.6089 70.5936C69.7095 70.5936 70.61 70.2926 70.61 69.9248C70.61 69.557 69.7095 69.256 68.6089 69.256C67.0527 69.256 66.6078 68.9591 66.6078 67.9185C66.6078 66.8358 67.0527 66.581 68.9424 66.581C70.2265 66.581 71.2771 66.2801 71.2771 65.9123C71.2771 65.5445 69.7762 65.2435 67.9419 65.2435H64.6066V69.9248ZM77.2805 65.5645C77.2805 66.9963 81.0493 74.6061 81.7584 74.6061C82.2567 74.6061 83.2826 73.177 84.039 71.4295C86.5638 65.5946 86.6572 65.2435 85.6913 65.2435C85.199 65.2435 84.1271 66.8238 83.3099 68.7545L81.8238 72.2655L80.4637 68.7545C79.7152 66.8238 78.6926 65.2435 78.1917 65.2435C77.6907 65.2435 77.2805 65.388 77.2805 65.5645ZM92.6226 69.9248V74.6061H95.9578C97.7922 74.6061 99.2931 74.3052 99.2931 73.9373C99.2931 73.5695 98.2425 73.2686 96.9584 73.2686C95.0686 73.2686 94.6237 73.0138 94.6237 71.9311C94.6237 70.8905 95.0686 70.5936 96.6249 70.5936C97.7255 70.5936 98.626 70.2926 98.626 69.9248C98.626 69.557 97.7255 69.256 96.6249 69.256C95.0686 69.256 94.6237 68.9591 94.6237 67.9185C94.6237 66.8358 95.0686 66.581 96.9584 66.581C98.2425 66.581 99.2931 66.2801 99.2931 65.9123C99.2931 65.5445 97.7922 65.2435 95.9578 65.2435H92.6226V69.9248ZM105.964 69.9248V74.6061H109.299C111.133 74.6061 112.634 74.3052 112.634 73.9373C112.634 73.5695 111.583 73.2686 110.299 73.2686H107.965V69.256C107.965 66.135 107.743 65.2435 106.964 65.2435C106.17 65.2435 105.964 66.2092 105.964 69.9248ZM120.795 65.937C118.823 66.7315 117.807 69.4065 118.642 71.6087C119.252 73.2164 121.603 74.6061 123.714 74.6061C125.178 74.6061 127.976 71.5325 127.976 69.9248C127.976 68.1914 125.12 65.2288 123.504 65.2856C122.845 65.3091 121.626 65.602 120.795 65.937ZM134.647 69.9248C134.647 73.6404 134.853 74.6061 135.647 74.6061C136.203 74.6061 136.648 74.0116 136.648 73.2686C136.648 72.3624 137.093 71.9311 138.026 71.9311C140.492 71.9311 141.984 70.6705 141.984 68.5873C141.984 66.2701 140.462 65.2435 137.025 65.2435H134.647V69.9248ZM149.322 69.9248V74.6061H152.657C156.526 74.6061 157.189 73.4491 153.496 73.1415C151.752 72.9964 150.934 72.5818 150.779 71.7639C150.602 70.8263 151.032 70.5936 152.942 70.5936C155.92 70.5936 156.094 69.4152 153.157 69.131C151.768 68.9972 150.989 68.5612 150.989 67.9185C150.989 67.2759 151.768 66.8398 153.157 66.7061C156.417 66.3904 155.763 65.2435 152.323 65.2435H149.322V69.9248ZM162.662 69.9248C162.662 73.6404 162.869 74.6061 163.663 74.6061C164.219 74.6061 164.664 74.0116 164.664 73.2686C164.664 72.5289 165.109 71.9311 165.659 71.9311C166.206 71.9311 167.028 72.533 167.487 73.2686C167.945 74.0042 168.698 74.6061 169.16 74.6061C170.22 74.6061 170.238 73.7748 169.2 72.7336C168.577 72.1096 168.577 71.7525 169.2 71.1286C169.64 70.6872 170 69.4941 170 68.477C170 66.2774 168.414 65.2435 165.041 65.2435H162.662V69.9248ZM54.8871 67.6316C57.0163 69.767 55.2706 73.5548 52.3496 73.1368C51.281 72.9844 50.8795 72.3838 50.7187 70.6972C50.6006 69.4667 50.6667 68.0369 50.8641 67.5206C51.3451 66.2654 53.585 66.3269 54.8871 67.6316ZM124.927 67.6316C125.503 68.2101 125.975 69.242 125.975 69.9248C125.975 71.1406 124.341 73.2686 123.407 73.2686C122.236 73.2686 119.972 71.0644 119.972 69.9248C119.972 68.7852 122.236 66.581 123.407 66.581C123.666 66.581 124.35 67.0538 124.927 67.6316ZM139.983 67.5842C141.022 68.8394 139.807 70.5936 137.9 70.5936C136.953 70.5936 136.648 70.104 136.648 68.5873C136.648 67.0706 136.953 66.581 137.9 66.581C138.589 66.581 139.526 67.0324 139.983 67.5842ZM167.999 67.5842C169.038 68.8394 167.823 70.5936 165.916 70.5936C164.969 70.5936 164.664 70.104 164.664 68.5873C164.664 67.0706 164.969 66.581 165.916 66.581C166.605 66.581 167.542 67.0324 167.999 67.5842ZM69.943 86.9781V96.6751H78.2811H86.6192V86.9781V77.2811H78.2811H69.943V86.9781ZM144.652 79.1837C144.652 81.7651 142.907 83.1588 138.582 84.0295C133.796 84.9932 124.888 83.4992 119.026 80.7493L114.782 78.7577L112.083 84.699L109.383 90.6402L110.842 91.6701C113.4 93.4777 122.586 96.011 129.002 96.6777C144.828 98.3229 157.426 92.8899 160.302 83.1769C162.132 77.0009 162.48 77.2811 152.99 77.2811H144.652V79.1837Z" fill="black"/>
</svg>
